<?xml version="1.0" encoding="UTF-8" standalone="no"?>
<!-- Generated by IcoMoon.io -->

<svg
   xmlns:dc="http://purl.org/dc/elements/1.1/"
   xmlns:cc="http://creativecommons.org/ns#"
   xmlns:rdf="http://www.w3.org/1999/02/22-rdf-syntax-ns#"
   xmlns:svg="http://www.w3.org/2000/svg"
   xmlns="http://www.w3.org/2000/svg"
   xmlns:sodipodi="http://sodipodi.sourceforge.net/DTD/sodipodi-0.dtd"
   xmlns:inkscape="http://www.inkscape.org/namespaces/inkscape"
   version="1.1"
   width="24.229525"
   height="35.709999"
   viewBox="0 0 24.229525 35.709998"
   id="svg2"
   inkscape:version="0.48.5 r10040"
   sodipodi:docname="viewermarker.svg">
  <metadata
     id="metadata11">
    <rdf:RDF>
      <cc:Work
         rdf:about="">
        <dc:format>image/svg+xml</dc:format>
        <dc:type
           rdf:resource="http://purl.org/dc/dcmitype/StillImage" />
      </cc:Work>
    </rdf:RDF>
  </metadata>
  <defs
     id="defs9" />
  <sodipodi:namedview
     pagecolor="#ffffff"
     bordercolor="#666666"
     borderopacity="1"
     objecttolerance="10"
     gridtolerance="10"
     guidetolerance="10"
     inkscape:pageopacity="0"
     inkscape:pageshadow="2"
     inkscape:window-width="1920"
     inkscape:window-height="1017"
     id="namedview7"
     showgrid="false"
     inkscape:zoom="14.75"
     inkscape:cx="4.9801954"
     inkscape:cy="13.39224"
     inkscape:window-x="1912"
     inkscape:window-y="-8"
     inkscape:window-maximized="1"
     inkscape:current-layer="svg2"
     fit-margin-top="0"
     fit-margin-left="0"
     fit-margin-right="0"
     fit-margin-bottom="0" />
  <g
     id="icomoon-ignore"
     transform="translate(0.64416352,5.3678331)" />
  <path
     d="m 17.854921,12.109893 q 0,-2.378228 -1.682222,-4.06045 -1.682222,-1.6822222 -4.060449,-1.6822222 -2.3782277,0 -4.0604497,1.6822222 -1.682222,1.682222 -1.682222,4.06045 0,2.378226 1.682222,4.060448 1.682222,1.682222 4.0604497,1.682222 2.378227,0 4.060449,-1.682222 1.682222,-1.682222 1.682222,-4.060448 z m 5.743927,0 q 0,2.444812 -0.739976,4.01522 L 14.692746,33.48881 q -0.35931,0.739976 -1.065366,1.167127 -0.706056,0.427152 -1.513874,0.425895 -0.807818,-0.0013 -1.513874,-0.425895 Q 9.8935758,34.231299 9.5568801,33.48881 L 1.3681403,16.125113 q -0.73997678,-1.570408 -0.73997678,-4.01522 0,-4.756455 3.36570028,-8.1208993 3.3657003,-3.36444363 8.1208982,-3.36570063 4.755198,-0.0013 8.120899,3.36570063 3.3657,3.3669563 3.3657,8.1208993 z"
     id="path5"
     inkscape:connector-curvature="0"
     style="fill:#019633;stroke:#000000;stroke-width:1.25632703;stroke-opacity:1" />
</svg>
