<?xml version="1.0" encoding="UTF-8" standalone="no"?>
<!-- Generated by IcoMoon.io -->

<svg
   xmlns:dc="http://purl.org/dc/elements/1.1/"
   xmlns:cc="http://creativecommons.org/ns#"
   xmlns:rdf="http://www.w3.org/1999/02/22-rdf-syntax-ns#"
   xmlns:svg="http://www.w3.org/2000/svg"
   xmlns="http://www.w3.org/2000/svg"
   xmlns:sodipodi="http://sodipodi.sourceforge.net/DTD/sodipodi-0.dtd"
   xmlns:inkscape="http://www.inkscape.org/namespaces/inkscape"
   version="1.1"
   width="32"
   height="32"
   viewBox="0 0 32 32"
   id="svg2"
   inkscape:version="0.48.5 r10040"
   sodipodi:docname="features.svg">
  <metadata
     id="metadata13">
    <rdf:RDF>
      <cc:Work
         rdf:about="">
        <dc:format>image/svg+xml</dc:format>
        <dc:type
           rdf:resource="http://purl.org/dc/dcmitype/StillImage" />
        <dc:title></dc:title>
      </cc:Work>
    </rdf:RDF>
  </metadata>
  <defs
     id="defs11" />
  <sodipodi:namedview
     pagecolor="#ffffff"
     bordercolor="#666666"
     borderopacity="1"
     objecttolerance="10"
     gridtolerance="10"
     guidetolerance="10"
     inkscape:pageopacity="0"
     inkscape:pageshadow="2"
     inkscape:window-width="1920"
     inkscape:window-height="1017"
     id="namedview9"
     showgrid="false"
     inkscape:zoom="14.75"
     inkscape:cx="15.011566"
     inkscape:cy="13.423611"
     inkscape:window-x="1912"
     inkscape:window-y="-8"
     inkscape:window-maximized="1"
     inkscape:current-layer="svg2" />
  <g
     id="icomoon-ignore">
    <line
       stroke-width="1"
       x1=""
       y1=""
       x2=""
       y2=""
       stroke="#449FDB"
       opacity=""
       id="line5" />
  </g>
  <path
     d="m 6.7881352,1.3559322 c -2.4572666,0 -4.4491522,1.9918856 -4.4491522,4.4491526 0,4.4491522 4.4491522,9.7881352 4.4491522,9.7881352 0,0 4.4491528,-5.338983 4.4491528,-9.7881352 0,-2.457267 -1.9918851,-4.4491526 -4.4491528,-4.4491526 z m 0,7.118644 c -1.4744488,0 -2.6694912,-1.1950423 -2.6694912,-2.6694914 0,-1.4744492 1.1950424,-2.6694916 2.6694912,-2.6694916 1.4744492,0 2.6694919,1.1950424 2.6694919,2.6694916 0,1.4744491 -1.1950427,2.6694914 -2.6694919,2.6694914 z"
     id="path7"
     inkscape:connector-curvature="0"
     style="fill:#019633" />
  <path
     d="m 16.745763,3.2542373 c -2.457267,0 -4.449152,1.9918856 -4.449152,4.4491524 0,4.4491533 4.449152,9.7881363 4.449152,9.7881363 0,0 4.449153,-5.338983 4.449153,-9.7881363 0,-2.4572668 -1.991885,-4.4491524 -4.449153,-4.4491524 z m 0,7.1186447 c -1.474449,0 -2.669491,-1.1950418 -2.669491,-2.6694923 0,-1.474449 1.195042,-2.6694914 2.669491,-2.6694914 1.474449,0 2.669492,1.1950424 2.669492,2.6694914 0,1.4744505 -1.195043,2.6694923 -2.669492,2.6694923 z"
     id="path7-1"
     inkscape:connector-curvature="0"
     style="fill:#019633" />
  <path
     style="fill:none;stroke:#019633;stroke-width:1px;stroke-linecap:butt;stroke-linejoin:miter;stroke-opacity:1"
     d="M 4.1355932,27.525423 26.644068,15.728813"
     id="path3022"
     inkscape:connector-curvature="0" />
  <path
     style="fill:none;stroke:#019633;stroke-width:1px;stroke-linecap:butt;stroke-linejoin:miter;stroke-opacity:1"
     d="M 8.1355935,29.830509 C 13.255841,26.635503 21.400967,28.005846 20.80805,23.989653 c -0.515648,-3.492808 5.886336,-5.916087 8.819068,-5.684568"
     id="path3024"
     inkscape:connector-curvature="0"
     sodipodi:nodetypes="csc" />
</svg>
