<?xml version="1.0" encoding="utf-8"?>
<!-- Generated by IcoMoon.io -->
<!DOCTYPE svg PUBLIC "-//W3C//DTD SVG 1.1//EN" "http://www.w3.org/Graphics/SVG/1.1/DTD/svg11.dtd">
<svg version="1.1" xmlns="http://www.w3.org/2000/svg" xmlns:xlink="http://www.w3.org/1999/xlink" width="32" height="32" viewBox="0 0 32 32">
<g id="icomoon-ignore">
	<line stroke-width="1" x1="" y1="" x2="" y2="" stroke="#449FDB" opacity=""></line>
</g>
	<path d="M31.113 6.022c0 0.59-0.489 1.080-1.079 1.080l-28.065-0c-0.59 0-1.080-0.489-1.080-1.079v-2.159c0-0.59 0.489-1.080 1.080-1.080h28.065c0.59 0 1.079 0.489 1.079 1.080v2.159zM31.113 12.499c0 0.59-0.489 1.080-1.079 1.080h-28.065c-0.59-0-1.080-0.489-1.080-1.080v-2.159c0-0.59 0.489-1.080 1.080-1.080h28.065c0.59 0 1.079 0.489 1.079 1.080v2.159zM31.113 18.976c0 0.59-0.489 1.079-1.079 1.079h-28.065c-0.59 0-1.080-0.489-1.080-1.079v-2.159c0-0.591 0.489-1.080 1.080-1.080h28.065c0.59 0 1.079 0.489 1.079 1.080v2.159zM31.113 25.452c0 0.59-0.489 1.079-1.079 1.079h-28.065c-0.59 0-1.080-0.489-1.080-1.079v-2.159c0-0.59 0.489-1.080 1.080-1.080h28.065c0.59 0 1.079 0.49 1.079 1.080v2.159z" fill="#019633"></path>
</svg>
