<?xml version="1.0" encoding="UTF-8" standalone="no"?>
<!-- Generated by IcoMoon.io -->

<svg
   xmlns:dc="http://purl.org/dc/elements/1.1/"
   xmlns:cc="http://creativecommons.org/ns#"
   xmlns:rdf="http://www.w3.org/1999/02/22-rdf-syntax-ns#"
   xmlns:svg="http://www.w3.org/2000/svg"
   xmlns="http://www.w3.org/2000/svg"
   xmlns:sodipodi="http://sodipodi.sourceforge.net/DTD/sodipodi-0.dtd"
   xmlns:inkscape="http://www.inkscape.org/namespaces/inkscape"
   version="1.1"
   width="32"
   height="32"
   viewBox="0 0 32 32"
   id="svg2"
   inkscape:version="0.48.5 r10040"
   sodipodi:docname="move.svg">
  <metadata
     id="metadata11">
    <rdf:RDF>
      <cc:Work
         rdf:about="">
        <dc:format>image/svg+xml</dc:format>
        <dc:type
           rdf:resource="http://purl.org/dc/dcmitype/StillImage" />
      </cc:Work>
    </rdf:RDF>
  </metadata>
  <defs
     id="defs9" />
  <sodipodi:namedview
     pagecolor="#ffffff"
     bordercolor="#666666"
     borderopacity="1"
     objecttolerance="10"
     gridtolerance="10"
     guidetolerance="10"
     inkscape:pageopacity="0"
     inkscape:pageshadow="2"
     inkscape:window-width="1920"
     inkscape:window-height="1017"
     id="namedview7"
     showgrid="false"
     inkscape:zoom="10.429825"
     inkscape:cx="16.748595"
     inkscape:cy="12.710475"
     inkscape:window-x="1912"
     inkscape:window-y="-8"
     inkscape:window-maximized="1"
     inkscape:current-layer="svg2" />
  <g
     id="icomoon-ignore" />
  <path
     d="m 29.961367,10.402787 c 0,0 -7.93e-4,0 -7.93e-4,0 H 20.43846 c -0.876901,0 -1.587151,0.71025 -1.587151,1.587152 0,0.8769 0.71025,1.58715 1.587151,1.58715 h 5.691525 L 12.967739,26.739335 c -0.619783,0.619783 -0.619783,1.624449 0,2.244232 0.310288,0.310288 0.715806,0.465035 1.122115,0.465035 0.406311,0 0.812622,-0.154747 1.122117,-0.465035 L 28.374217,15.821321 v 5.691525 c 0,0.876901 0.71025,1.587151 1.58715,1.587151 0.876902,0 1.587152,-0.71025 1.587152,-1.587151 V 10.402787 h -1.586358 z"
     id="path5"
     inkscape:connector-curvature="0"
     style="fill:#019633" />
  <g
     id="g3019"
     transform="matrix(0.84813382,0,0,0.84813382,-4.48447,2.1757496)">
    <g
       id="icomoon-ignore-7">
      <line
         id="line3009"
         opacity=""
         y2="0"
         x2="0"
         y1="0"
         x1="0"
         style="stroke:#449fdb;stroke-width:1" />
    </g>
    <path
       id="path3011"
       d="M 16,0 C 10.477,0 6,4.477 6,10 6,20 16,32 16,32 16,32 26,20 26,10 26,4.477 21.523,0 16,0 z m 0,16 c -3.314,0 -6,-2.686 -6,-6 0,-3.314 2.686,-6 6,-6 3.314,0 6,2.686 6,6 0,3.314 -2.686,6 -6,6 z"
       inkscape:connector-curvature="0"
       style="fill:#019633" />
  </g>
</svg>
