<?xml version="1.0" encoding="utf-8"?>
<!-- Generated by IcoMoon.io -->
<!DOCTYPE svg PUBLIC "-//W3C//DTD SVG 1.1//EN" "http://www.w3.org/Graphics/SVG/1.1/DTD/svg11.dtd">
<svg version="1.1" xmlns="http://www.w3.org/2000/svg" xmlns:xlink="http://www.w3.org/1999/xlink" width="32" height="32" viewBox="0 0 32 32">
<g id="icomoon-ignore">
	<line stroke-width="1" x1="" y1="" x2="" y2="" stroke="#449FDB" opacity=""></line>
</g>
	<path d="M28.954 17.643c0 0.252-0.202 0.556-0.472 0.607l-3.12 0.472c-0.185 0.54-0.388 1.046-0.658 1.535 0.574 0.826 1.181 1.568 1.805 2.328 0.102 0.118 0.169 0.269 0.169 0.421s-0.051 0.269-0.152 0.388c-0.404 0.54-2.681 3.019-3.255 3.019-0.152 0-0.304-0.067-0.438-0.152l-2.327-1.821c-0.49 0.253-1.012 0.472-1.535 0.64-0.118 1.029-0.219 2.125-0.489 3.137-0.067 0.27-0.304 0.472-0.607 0.472l-3.745-0c-0.304 0-0.573-0.219-0.607-0.506l-0.472-3.103c-0.523-0.168-1.029-0.371-1.518-0.624l-2.378 1.804c-0.118 0.102-0.27 0.152-0.422 0.152s-0.304-0.067-0.422-0.185c-0.894-0.81-2.074-1.856-2.783-2.834-0.084-0.118-0.118-0.252-0.118-0.388 0-0.152 0.051-0.27 0.135-0.388 0.574-0.776 1.197-1.518 1.771-2.31-0.287-0.54-0.523-1.096-0.692-1.67l-3.086-0.455c-0.287-0.051-0.489-0.32-0.489-0.607v-3.744c0-0.253 0.203-0.556 0.455-0.607l3.137-0.472c0.168-0.54 0.388-1.046 0.658-1.552-0.573-0.81-1.18-1.568-1.805-2.328-0.101-0.118-0.168-0.253-0.168-0.405s0.068-0.27 0.152-0.388c0.405-0.556 2.682-3.019 3.255-3.019 0.152 0 0.304 0.068 0.439 0.168l2.328 1.805c0.489-0.253 1.012-0.472 1.535-0.641 0.118-1.029 0.219-2.125 0.489-3.137 0.068-0.27 0.304-0.472 0.607-0.472h3.744c0.304 0 0.573 0.219 0.607 0.506l0.472 3.103c0.523 0.168 1.029 0.371 1.518 0.624l2.395-1.804c0.101-0.101 0.253-0.152 0.404-0.152s0.304 0.068 0.422 0.168c0.894 0.826 2.075 1.872 2.783 2.867 0.084 0.101 0.118 0.236 0.118 0.371 0 0.152-0.051 0.27-0.135 0.388-0.573 0.776-1.197 1.518-1.771 2.311 0.287 0.54 0.523 1.096 0.692 1.653l3.086 0.472c0.287 0.051 0.489 0.32 0.489 0.607l-0 3.745zM16.001 11.42c-2.378 0-4.318 1.94-4.318 4.318s1.94 4.317 4.318 4.317 4.318-1.939 4.318-4.317c0-2.378-1.939-4.318-4.318-4.318z" fill="#019633"></path>
</svg>
